<svg xmlns:xlink="http://www.w3.org/1999/xlink" xmlns="http://www.w3.org/2000/svg" x="0" y="0" width="19" height="19" viewBox="0 0 19 19" style="enable-background:new 0 0 19 19;" role="img" space="preserve"><path d="M9.5,2C5.4,2,2,5.4,2,9.5S5.4,17,9.5,17c4.1,0,7.5-3.4,
              7.5-7.5S13.6,2,9.5,2z M14.7,6.5h-2.2c-0.2-1-0.6-1.8-1.1-2.7C12.8,
              4.3,14,
              5.2,14.7,
              6.5z M9.5,3.5c0.6,0.9,1.1,1.9,1.4,3H8.1C8.4,
              5.4,8.9,4.4,9.5,3.5z M3.7,
              11c-0.2-0.5-0.2-1-0.2-1.5C3.5,9,3.5,8.4,3.7,8h2.6C6.2,8.5,
              6.2,9,6.2,9.5c0,0.5,
              0.1,1,0.1,1.5H3.7z M4.3,12.5h2.2c0.2,1,0.6,1.8,
              1.1,2.7C6.2,14.7,5,13.8,4.3,
              12.5z M6.5,6.5H4.3c0.8-1.3,1.9-2.2,3.2-2.7C7.1,
              4.7,6.7,5.5,6.5,6.5z M9.5,
              15.5c-0.6-0.9-1.1-1.9-1.4-3h2.9C10.6,13.6,10.1,
              14.6,9.5,15.5z M11.2,
              11H7.8c-0.1-0.5-0.2-1-0.2-1.5c0-0.5,0.1-1,
              0.2-1.5h3.5c0.1,0.5,0.2,1,0.2,
              1.5C11.5,10,
              11.3,10.5,11.2,11z M11.5,15.2c0.5-0.8,0.8-1.7,1.1-2.7h2.2C14,
              13.8,12.8,14.7,11.5,
              15.2z M12.8,11c0.1-0.5,0.1-1,0.1-1.5c0-0.5-0.1-1-0.1-1.5h2.6c0.2,
              0.5,0.2,1,0.2,
              1.5c0,0.5-0.1,1.1-0.2,1.5H12.8z" fill="#FFFFFF"></path></svg>